<svg id="Camada_1" data-name="Camada 1" xmlns="http://www.w3.org/2000/svg" viewBox="0 0 1836 476.04"><defs><style>.cls-1{fill:#fff;}</style></defs><path d="M852.5,181.87l-26.19-26.2,32.79-16.4L891,171.21h2.58l31.08-15.54-82-82H793.51l-32.8,16.4-16.4,32.8,75.39,75.39Zm-75.39-75.4,32.8-16.4,32.79,32.8-32.79,16.4Z"/><polygon points="81.94 224 240.31 382.38 293.1 355.98 134.73 197.61 81.94 224"/><polygon points="203.13 172.07 104.74 73.67 71.94 90.07 170.34 188.47 203.13 172.07"/><polygon points="531.12 90.07 498.32 106.47 596.72 204.87 629.51 188.47 580.32 139.27 613.12 122.87 662.31 172.07 695.11 155.67 596.72 57.27 563.92 73.67 596.72 106.47 563.92 122.87 531.12 90.07"/><polygon points="477.87 197.61 517.47 237.2 517.47 243.8 504.27 243.8 425.08 224 372.29 250.4 530.66 408.77 583.45 382.38 491.07 289.99 491.07 283.39 504.27 283.39 583.45 303.19 636.25 355.98 689.04 329.59 530.66 171.21 477.87 197.61"/><path d="M873.81,197.61,768.22,250.4,926.6,408.77,1032.18,356l26.4-52.79L953,197.61ZM953,356,847.41,250.4,900.2,224l105.58,105.59Z"/><path class="cls-1" d="M319.5,369.18l-79.19,39.59L55.54,316.39V210.81l63.34-31.67L55.54,147.47V81.87l49.2-24.6,114.79,114.8v8.2l-49.19,24.6-3.91-2L319.5,356Z"/><polygon class="cls-1" points="449.12 155.67 432.72 139.27 367.13 172.07 285.13 90.07 252.33 106.47 350.73 204.87 449.12 155.67"/><polygon class="cls-1" points="1137.76 224 1296.14 382.38 1348.93 355.98 1190.55 197.61 1137.76 224"/><polygon class="cls-1" points="1612.88 355.98 1560.09 303.19 1612.88 276.79 1586.49 250.4 1533.7 276.79 1507.3 250.4 1612.88 197.61 1586.49 171.21 1428.12 250.4 1586.49 408.77 1744.86 329.59 1718.47 303.19 1612.88 355.98"/><path d="M71.94,90.07l32.8-16.4,98.39,98.4-32.79,16.4ZM293.1,356l-52.79,26.4L81.94,224l52.79-26.39Z"/><path d="M465.52,163.87v-8.2l-32.8-32.8-65.59,32.8-82-82-49.2,24.6v65.6l114.8,57.4ZM285.13,90.07l82,82,65.59-32.8,16.4,16.4-98.39,49.2-98.4-98.4Z"/><path class="cls-1" d="M547.52,90.07l-16.4-16.4-49.2,24.6v70.92h0l-30.44,15.22v19.8l-26.4-6.6L345.89,237.2V342.78l184.77,92.39,79.19-39.6V369.18l26.4,13.2,79.18-39.6V329.59L603.65,217.8l42.26-21.13v-16.4l16.4,8.2,49.2-24.6v-8.2l-113-113-1.81-1.81-3.63,1.81L547.52,65.47ZM689,329.59,636.25,356l-52.8-52.79-79.18-19.8h-13.2V290l92.38,92.39-52.79,26.39L372.29,250.4,425.08,224l79.19,19.8h13.2v-6.6l-39.6-39.59,52.79-26.4ZM563.92,73.67l32.8-16.4,98.39,98.4-32.8,16.4-49.19-49.2-32.8,16.4,49.19,49.2-32.79,16.4-98.4-98.4,32.8-16.4,32.8,32.8,32.8-16.4Z"/><path class="cls-1" d="M953.64,171.86,842.7,57.27H793.51l-49.2,24.6-16.4,32.8v57.4l72.09,36L741.83,237.2V342.78L926.6,435.17l132-66L1085,316.39v-13.2L953.64,171.86Zm-209.33-49,16.4-32.8,32.8-16.4H842.7l82,82-31.08,15.54H891L859.1,139.27l-32.79,16.4,26.19,26.2-32.8,16.39Zm314.27,180.32L1032.18,356,926.6,408.77,768.22,250.4l105.59-52.79H953Z"/><polygon class="cls-1" points="809.91 90.07 777.11 106.47 809.91 139.27 842.7 122.87 809.91 90.07"/><polygon class="cls-1" points="847.41 250.4 952.99 355.98 1005.78 329.59 900.2 224 847.41 250.4"/><path d="M1111.37,210.81V316.39l184.77,92.38,79.18-39.59V356L1190.55,171.21Zm184.77,171.57L1137.76,224l52.79-26.39L1348.93,356Z"/><path d="M1639.28,316.39V197.61l-52.79-52.79L1401.72,237.2V342.78l184.77,92.39,184.77-92.39V329.59l-52.79-52.8Zm-52.79,92.38L1428.11,250.4l158.38-79.19,26.39,26.4L1507.3,250.4l26.4,26.39,52.79-26.39,26.39,26.39-52.79,26.4L1612.88,356l105.59-52.79,26.39,26.4Z"/></svg>