<svg id="Camada_1" data-name="Camada 1" xmlns="http://www.w3.org/2000/svg" viewBox="0 0 1836 476.04"><path d="M178.18,202.49,63.39,145.1V79.5l49.2-24.6L227.38,169.7v8.19Zm0-16.4L211,169.7,112.59,71.3,79.79,87.7Z"/><path d="M358.58,218.89,243.78,161.5V95.9L293,71.3l82,82,65.6-32.8,32.8,32.8v8.2Zm0-16.4L457,153.3l-16.4-16.4L375,169.7l-82-82-32.8,16.4Z"/><path d="M604.56,218.89l-58.3-56.43-56.49,4.35V95.9L539,71.3l16.4,16.4V63.1l49.19-24.6,114.8,114.8v8.2l-49.2,24.59-16.4-8.2v16.4Zm0-16.4,32.8-16.4L588.17,136.9,621,120.5l49.2,49.2L703,153.3l-98.4-98.4L571.77,71.3l32.79,32.8-32.79,16.4L539,87.7l-32.8,16.4ZM481.89,158.36"/><path d="M834.15,218.89,735.76,169.7V112.3l16.4-32.8,49.2-24.6h49.19L961.48,169.48,949,172.9l-49.29,13.19-16.4-8.2v16.4Zm0-16.4,32.8-16.4-32.8-32.79L867,136.9l32.8,32.8,32.8-16.4-82-82H801.36l-32.8,16.4-16.4,32.8Zm-16.4-65.59L785,104.1l32.79-16.4,32.8,32.8Z"/><path d="M248.16,406.4,63.39,314V208.43l79.19-39.59L327.35,353.61V366.8Zm0-26.4L301,353.61,142.58,195.23l-52.79,26.4Z"/><path d="M538.51,432.79,353.74,340.41V234.83l79.19-39.6,26.39,6.6V182l79.19-39.6L723.28,327.21v13.2L644.09,380,617.7,366.8v26.4Zm0-26.39L591.3,380l-92.38-92.38V281h13.2l79.18,19.8,52.79,52.79,52.79-26.4L538.51,168.84l-52.79,26.39,39.59,39.6v6.6H512.12l-79.19-19.8L380.14,248Z"/><path d="M934.45,432.79,749.68,340.41V234.83l132-66h79.19l132,132V314l-26.4,52.79Zm0-26.39L1040,353.61l26.39-52.79L960.84,195.23H881.65L776.07,248Zm26.39-52.79L855.26,248l52.79-26.39,105.58,105.58Z"/><path d="M1304,406.4,1119.21,314V208.43l79.19-39.59,184.77,184.77V366.8Zm0-26.4,52.79-26.39L1198.4,195.23l-52.79,26.4Z"/><path d="M1594.34,432.79l-184.77-92.38V234.83l184.77-92.39,52.79,52.79V314l79.18-39.59,52.8,52.79v13.2Zm0-26.39,158.37-79.19-26.4-26.39-105.58,52.79-52.79-52.79,52.79-26.4L1594.34,248l-52.79,26.4-26.4-26.4,105.58-52.79-26.39-26.39L1436,248Z"/></svg>